<?xml version="1.0" standalone="no"?>
<!DOCTYPE svg PUBLIC "-//W3C//DTD SVG 20010904//EN"
 "http://www.w3.org/TR/2001/REC-SVG-20010904/DTD/svg10.dtd">
<svg version="1.0" xmlns="http://www.w3.org/2000/svg"
 width="700.000000pt" height="700.000000pt" viewBox="0 0 700.000000 700.000000"
 preserveAspectRatio="xMidYMid meet">
<metadata>
Created by potrace 1.14, written by Peter Selinger 2001-2017
</metadata>
<g transform="translate(0.000000,700.000000) scale(0.100000,-0.100000)"
fill="#000000" stroke="none">
<path d="M3515 6985 c-11 -6 -63 -36 -115 -65 -368 -207 -682 -481 -970 -847
-70 -88 -205 -314 -274 -458 -132 -273 -247 -646 -281 -915 -4 -30 -9 -62 -10
-70 -2 -8 -6 -44 -10 -80 -4 -36 -9 -74 -12 -85 -6 -24 -13 -616 -8 -625 3 -4
56 19 118 50 158 79 347 138 502 156 22 3 55 7 72 10 68 11 311 4 379 -11 12
-3 39 -7 60 -11 170 -25 389 -113 509 -204 l63 -48 64 43 c176 118 428 219
601 241 23 3 65 9 92 13 72 10 274 6 374 -8 161 -23 347 -81 511 -159 47 -23
66 -28 71 -19 7 12 23 140 35 272 12 135 6 445 -11 570 -3 28 -8 66 -11 85 -6
45 -27 165 -38 215 -45 202 -135 444 -234 635 -50 95 -198 331 -242 384 -178
214 -288 327 -450 462 -131 110 -332 249 -475 329 -250 139 -285 155 -310 140z"/>
<path d="M4338 3935 c-2 -1 -25 -5 -53 -8 -101 -12 -241 -47 -335 -84 -75 -30
-214 -97 -250 -122 -14 -10 -33 -21 -42 -24 -27 -10 -22 -19 30 -54 103 -71
242 -208 333 -330 38 -51 69 -94 69 -97 0 -3 12 -22 26 -43 77 -114 186 -392
224 -574 25 -124 27 -134 35 -215 9 -81 13 -105 19 -111 5 -5 124 81 185 133
102 87 242 245 315 354 20 30 39 60 43 65 15 20 64 111 99 185 60 125 126 320
150 445 2 11 6 31 9 45 5 25 8 54 24 184 l8 68 -63 28 c-152 68 -336 123 -489
144 -85 11 -327 20 -337 11z"/>
<path d="M2529 3916 c-2 -2 -31 -6 -64 -10 -156 -14 -371 -76 -529 -152 l-78
-37 6 -36 c3 -20 8 -54 12 -76 25 -166 98 -446 139 -540 124 -280 230 -430
430 -603 55 -48 52 -45 115 -88 70 -49 143 -94 145 -91 2 1 6 36 9 77 10 108
14 132 30 215 84 419 340 818 694 1084 18 13 32 27 32 31 0 8 -135 76 -227
114 -69 29 -252 82 -313 91 -21 3 -54 8 -72 11 -40 6 -324 15 -329 10z"/>
<path d="M5362 3687 c4 -122 -41 -383 -93 -538 -41 -125 -45 -136 -108 -264
-150 -306 -401 -584 -621 -689 l-65 -31 0 -135 c0 -120 -11 -286 -20 -300 -2
-3 -6 -25 -10 -48 -22 -147 -122 -408 -223 -577 -102 -172 -342 -439 -485
-540 -31 -22 -57 -42 -57 -45 0 -10 247 -160 370 -224 170 -88 391 -175 537
-211 131 -33 216 -48 373 -69 107 -14 498 -15 590 -2 25 4 79 12 120 17 41 6
86 12 100 14 14 3 43 7 65 11 239 37 643 156 1001 296 138 53 152 61 157 86 6
33 0 561 -7 617 -6 43 -16 132 -20 180 -3 30 -15 112 -22 150 -4 19 -10 53
-18 105 -2 14 -14 68 -26 120 -12 52 -23 103 -25 112 -13 58 -54 192 -96 311
-139 396 -334 739 -592 1044 -72 84 -272 277 -367 352 -119 95 -257 188 -372
249 -85 46 -88 46 -86 9z"/>
<path d="M1645 3582 c-190 -116 -354 -232 -475 -337 -86 -74 -270 -262 -325
-331 -33 -42 -65 -81 -71 -88 -12 -13 -113 -163 -166 -246 -49 -78 -127 -229
-177 -340 -24 -52 -47 -104 -52 -115 -69 -152 -220 -650 -263 -865 -2 -14 -14
-70 -25 -124 -24 -111 -81 -439 -81 -462 0 -8 24 -25 52 -38 60 -27 150 -67
223 -101 541 -248 1111 -442 1442 -490 23 -3 57 -8 75 -11 65 -11 384 -13 443
-3 33 5 74 11 90 14 93 13 186 38 310 82 39 14 84 29 101 34 16 5 57 22 90 38
32 15 70 32 84 36 46 14 561 277 558 285 -2 4 -48 41 -103 83 -207 155 -389
375 -510 616 -150 297 -223 627 -191 861 l6 45 -48 25 c-208 109 -418 307
-558 525 -160 251 -255 544 -289 903 -5 43 -12 72 -19 71 -6 0 -60 -30 -121
-67z"/>
<path d="M3495 3528 c-250 -179 -474 -478 -558 -744 -14 -43 -42 -163 -61
-264 -20 -102 -40 -202 -45 -222 l-9 -37 68 -35 c99 -53 237 -103 353 -131
136 -32 169 -36 322 -39 116 -3 156 -1 285 17 75 11 244 58 325 92 108 44 105
42 105 93 -1 77 -21 218 -45 319 -16 63 -68 221 -84 251 -5 9 -28 55 -51 102
-116 232 -304 450 -510 589 -53 36 -56 37 -95 9z"/>
<path d="M2803 1992 c28 -452 229 -892 551 -1206 74 -72 213 -186 227 -186 22
0 313 286 391 385 160 202 260 413 313 656 13 60 17 87 30 194 6 50 8 235 2
241 -2 2 -31 -9 -64 -26 -84 -40 -128 -58 -198 -81 -112 -36 -142 -44 -270
-65 -59 -9 -322 -12 -369 -3 -23 4 -61 10 -86 14 -128 18 -336 84 -469 149
-30 14 -57 26 -59 26 -3 0 -2 -44 1 -98z"/>
</g>
</svg>
